An overstressed suburbanite and his paramilitaric neighbor struggle to prove their paranoid theory that the new family in town is a front for a cannibalistic cult.

General 
Complete name : The.Burbs.DVDRip.x264.AAC-AUS.mp4 
Format : MPEG-4 
Format profile : Base Media / Version 2 
Codec ID : mp42 
File size : 989 MiB 
Duration : 1h 37mn 
Overall bit rate : 1 423 Kbps 

Video 
ID : 1 
Format : AVC 
Format/Info : Advanced Video Codec 
Format profile : High@L3.0 
Format settings, CABAC : Yes 
Format settings, ReFrames : 4 frames 
Codec ID : avc1 
Codec ID/Info : Advanced Video Coding 
Duration : 1h 37mn 
Bit rate mode : Variable 
Bit rate : 1 100 Kbps 
Width : 720 pixels 
Height : 384 pixels 
Display aspect ratio : 1.875 
Frame rate mode : Variable 
Frame rate : 25.000 fps 
Minimum frame rate : 20.000 fps 
Maximum frame rate : 25.000 fps 
Color space : YUV 
Chroma subsampling : 4:2:0 
Bit depth : 8 bits 
Scan type : Progressive 
Bits/(Pixel*Frame) : 0.159 
Stream size : 764 MiB (77%) 
Writing library : x264 core 112 

Audio 
ID : 2 
Format : AAC 
Format/Info : Advanced Audio Codec 
Format profile : LC 
Codec ID : 40 
Duration : 1h 37mn 
Bit rate mode : Variable 
Bit rate : 319 Kbps 
Maximum bit rate : 385 Kbps 
Channel(s) : 2 channels 
Channel positions : Front: L R 
Sampling rate : 48.0 KHz 
Compression mode : Lossy 
Stream size : 222 MiB (22%) 
Language : English